<svg width="106" height="106" viewBox="0 0 106 106" fill="none" xmlns="http://www.w3.org/2000/svg">
<g filter="url(#filter0_dd_463_9)">
<circle cx="53" cy="52" r="50" fill="white"/>
</g>
<g clip-path="url(#clip0_463_9)">
<path d="M52.1758 24.1874C50.6875 24.5859 50.6641 24.6093 42.0977 33.1054C36.8945 38.2616 33.8945 41.3085 33.7422 41.6249C33.4141 42.2577 33.3906 43.4531 33.6953 44.039C34.2227 45.0468 35.043 45.5624 36.2617 45.6562L37.0469 45.7148V48.4452V51.1757L37.3516 51.4101C37.7617 51.7382 38.1367 51.7148 38.5352 51.3749L38.8633 51.0937L38.8984 47.707L38.9336 44.332L46.1641 37.1015L53.3945 29.871L60.6836 37.1366L67.9727 44.3906L68.0078 50.4257L68.043 56.4491L68.3008 56.707C68.6406 57.0585 69.1914 57.0468 69.5664 56.6952L69.8594 56.4257V51.0702V45.7148H70.5391C71.3828 45.7148 71.9453 45.4804 72.5312 44.8593C73.0586 44.332 73.375 43.5468 73.375 42.8202C73.375 41.7304 73.3164 41.6718 64.6328 32.9999C59.125 27.5156 56.2773 24.7616 55.9492 24.5976C54.7773 24.0116 53.3828 23.8593 52.1758 24.1874ZM55.0469 26.2734C55.4688 26.496 57.8945 28.8515 63.5664 34.5234C70.7383 41.6952 71.5 42.4921 71.5 42.832C71.5 43.4062 71.0547 43.8515 70.5039 43.8398C70.0703 43.8281 69.7422 43.5116 62.1953 35.9765C57.8711 31.664 54.2148 28.0663 54.0742 27.996C53.9336 27.9257 53.6289 27.8671 53.3945 27.8671C53.1602 27.8671 52.8555 27.9257 52.7148 27.996C52.5742 28.0663 48.918 31.664 44.582 35.9882C36.9883 43.5702 36.6953 43.8515 36.2852 43.8398C35.5469 43.8163 35.1016 43.1015 35.4297 42.4804C35.6641 42.0234 51.3555 26.5195 51.8125 26.2851C52.4922 25.9335 52.7734 25.8749 53.6406 25.9218C54.2734 25.9452 54.6016 26.0273 55.0469 26.2734Z" fill="#F8455B"/>
<path d="M63.7656 25.7109C63.2266 25.9453 62.6406 26.5195 62.3242 27.1055C62.1484 27.4453 62.0781 27.7969 62.0664 28.3711C62.0664 29.0742 62.1016 29.2031 62.3477 29.4023C62.6875 29.6836 63.1914 29.6836 63.5312 29.414C63.7305 29.25 63.8242 29.0039 63.8945 28.5C64.0234 27.5273 64.2109 27.3984 65.5117 27.3984C67.1055 27.3984 67.0234 27.2226 67.0703 31.0781L67.1055 34.2187L67.4336 34.5C67.8555 34.8633 68.2656 34.8633 68.6289 34.4883L68.9219 34.207V30.914C68.9219 28.418 68.8867 27.539 68.7695 27.2461C68.5117 26.6367 67.9727 26.0976 67.3398 25.8047C66.8359 25.5586 66.5781 25.5234 65.4648 25.5234C64.5742 25.5351 64.0469 25.5937 63.7656 25.7109Z" fill="#F8455B"/>
<path d="M49.2695 46.3828C48.2734 46.5937 47.3945 47.2851 46.9258 48.2344C46.6328 48.832 46.5977 49.043 46.5508 50.3437C46.5274 51.2812 46.5625 51.9023 46.6563 52.125C46.8203 52.5234 47.3125 52.7578 47.7578 52.6406C48.3086 52.5117 48.4141 52.207 48.4141 50.7773C48.4141 49.3477 48.5664 48.8789 49.1524 48.4453C49.4688 48.2109 49.6211 48.1992 53.3125 48.1992C58.5859 48.1992 58.2578 47.9414 58.2578 52.0664V54.8437L58.5977 55.1836C59.0195 55.6055 59.3008 55.6172 59.7695 55.2187L60.1328 54.9141V52.0195C60.1328 48.7148 60.0742 48.3867 59.3008 47.5078C59.043 47.2148 58.5391 46.8398 58.1641 46.6523L57.4961 46.3242L53.6289 46.3008C51.5078 46.2891 49.5391 46.3242 49.2695 46.3828Z" fill="#F8455B"/>
<path d="M39.5664 53.1328C38.4062 53.3907 37.5508 53.7539 36.1328 54.6094C33.9648 55.9219 31.2461 58.3008 30.7539 59.3438C30.6016 59.6602 30.6016 59.7539 30.7305 60.0469C30.8242 60.2344 31.0352 60.4453 31.1992 60.5274C31.668 60.7617 32.1016 60.5391 32.7695 59.7305C34.082 58.1367 36.9883 55.9805 38.8164 55.2539C41.5352 54.1641 44.5352 54.75 47.0078 56.8242C48.1094 57.75 49.3047 58.3828 50.2773 58.5703C50.6172 58.6289 52.3633 58.6875 54.1445 58.6875C57.0391 58.6875 57.4258 58.711 57.8477 58.9102C59.1484 59.5196 59.6992 61.1016 59.0195 62.3203C58.8672 62.6133 58.668 62.9883 58.5859 63.1641C58.2695 63.8555 58 63.9024 53.7109 63.961L49.7969 64.0196L49.5742 64.3008C49.2578 64.6875 49.293 65.0977 49.7031 65.4961L50.0547 65.8477L53.9453 65.8125C58.3281 65.7657 58.3633 65.7539 59.5234 64.8867C60.0508 64.4883 60.4023 64.336 61.6797 64.0078C65.5117 62.9883 68.4414 61.8399 71.0312 60.3282C72.6367 59.3789 74.1133 59.2617 75.543 59.9649C76.8906 60.6328 77.1016 61.2305 76.2695 62.0274C74.8633 63.375 70.5625 66.3282 67.3984 68.1328C63.1445 70.5469 60.4961 71.4844 57.0273 71.8008C56.3242 71.8711 52.7031 72 49 72.1055C45.2969 72.1992 42.0508 72.3164 41.793 72.3516C41.5352 72.3867 41.2422 72.4922 41.125 72.5977C40.8203 72.8789 40.8555 73.5235 41.1953 73.8633C41.4531 74.1211 41.5469 74.1446 42.2852 74.086C42.7187 74.0625 46.0352 73.9571 49.6445 73.8633C53.2539 73.7696 56.5234 73.6524 56.9102 73.6172C60.4492 73.3008 63.0273 72.4922 66.5078 70.6172C69.7656 68.8594 72.6602 67.0313 75.3672 65.0157C78.2969 62.836 78.5898 62.4844 78.5781 61.0899C78.5781 60.1055 78.4023 59.7188 77.6406 59.0508C76.5742 58.1133 75.2148 57.6328 73.5977 57.6328C72.332 57.6328 71.3125 57.9258 70.0937 58.6289C68.0078 59.8477 64.9844 61.0899 62.2891 61.8516C61.5977 62.0391 61.0234 62.2032 61.0234 62.2032C61.0117 62.2032 61.0117 61.711 61.0117 61.1133C61.0117 60.1875 60.9648 59.9414 60.6953 59.3672C60.2969 58.5 59.4414 57.6563 58.5508 57.211L57.8477 56.8711L54.0977 56.8125L50.3477 56.7539L49.5859 56.3907C49.1641 56.1914 48.5898 55.8164 48.2969 55.5586C47.0898 54.4922 45.8711 53.8125 44.2539 53.2969C43.1523 52.9571 40.75 52.8633 39.5664 53.1328Z" fill="#F8455B"/>
<path d="M25.9609 61.0312C25.1172 61.207 24.4961 61.582 21.9883 63.4687C19.8086 65.0977 19.5274 65.3437 19.4922 65.6719C19.457 65.9883 20.2774 67.125 26.1016 74.8711C29.7461 79.7344 32.8164 83.7773 32.9219 83.8476C33.3438 84.1875 33.707 84.0234 35.9453 82.418C37.1641 81.5508 38.4063 80.5898 38.7227 80.2969C39.9414 79.1016 40.4219 77.1445 39.8711 75.668C39.6953 75.1992 38.3008 73.2656 34.8203 68.6133C29.8047 61.9219 29.5352 61.6172 28.375 61.207C27.7188 60.9727 26.5938 60.8906 25.9609 61.0312ZM27.6133 62.8008C27.8711 62.8711 28.2344 63.0469 28.4219 63.1758C28.8203 63.457 37.668 75.2461 38.0664 76.0195C38.4297 76.7226 38.418 77.3789 38.0195 78.1289C37.7383 78.6328 37.3984 78.9492 35.7344 80.1914C34.6563 81 33.7188 81.6562 33.6719 81.6562C33.5547 81.6562 21.9766 66.3164 21.8594 66.0351C21.8242 65.918 22.4336 65.4023 23.7695 64.418C26.1953 62.6484 26.5352 62.5078 27.6133 62.8008Z" fill="#F8455B"/>
</g>
<defs>
<filter id="filter0_dd_463_9" x="0" y="0" width="106" height="106" filterUnits="userSpaceOnUse" color-interpolation-filters="sRGB">
<feFlood flood-opacity="0" result="BackgroundImageFix"/>
<feColorMatrix in="SourceAlpha" type="matrix" values="0 0 0 0 0 0 0 0 0 0 0 0 0 0 0 0 0 0 127 0" result="hardAlpha"/>
<feOffset dy="1"/>
<feGaussianBlur stdDeviation="1"/>
<feColorMatrix type="matrix" values="0 0 0 0 0.0627451 0 0 0 0 0.0941176 0 0 0 0 0.156863 0 0 0 0.06 0"/>
<feBlend mode="normal" in2="BackgroundImageFix" result="effect1_dropShadow_463_9"/>
<feColorMatrix in="SourceAlpha" type="matrix" values="0 0 0 0 0 0 0 0 0 0 0 0 0 0 0 0 0 0 127 0" result="hardAlpha"/>
<feOffset dy="1"/>
<feGaussianBlur stdDeviation="1.5"/>
<feColorMatrix type="matrix" values="0 0 0 0 0.0627451 0 0 0 0 0.0941176 0 0 0 0 0.156863 0 0 0 0.1 0"/>
<feBlend mode="normal" in2="effect1_dropShadow_463_9" result="effect2_dropShadow_463_9"/>
<feBlend mode="normal" in="SourceGraphic" in2="effect2_dropShadow_463_9" result="shape"/>
</filter>
<clipPath id="clip0_463_9">
<rect width="60" height="60" fill="white" transform="translate(19 24)"/>
</clipPath>
</defs>
</svg>
