<svg width="60" height="60" viewBox="0 0 60 60" fill="none" xmlns="http://www.w3.org/2000/svg">
<path d="M34.1602 2.22657C34.0312 2.28516 29.3086 5.40235 23.6719 9.16407C13.7109 15.7969 13.418 16.0078 13.3828 16.3945C13.3477 16.7227 13.5352 17.0742 14.6719 18.7852C15.3984 19.8867 16.0664 20.8477 16.1484 20.9414C16.5352 21.3281 16.8516 21.2578 17.8711 20.5781C18.4219 20.2148 18.8906 19.9219 18.9258 19.9219C18.9609 19.9219 18.9844 23.4844 18.9844 27.832V35.7422L16.2656 35.7188L13.5352 35.6836L13.5 34.9805C13.4414 33.7852 13.8164 33.8672 8.20312 33.8672C3.62109 33.8672 3.30469 33.8789 3.12891 34.0781C2.84766 34.3828 2.88281 34.957 3.17578 35.2266C3.41016 35.4375 3.67969 35.4492 7.62891 35.4844L11.8359 35.5195V45.8789V56.25H7.64062C2.95312 56.25 2.92969 56.25 2.92969 57.0117C2.92969 57.293 3.01172 57.4688 3.23438 57.6445C3.53906 57.8789 3.66797 57.8906 8.16797 57.8906C12.7617 57.8906 13.1367 57.8555 13.3828 57.4922C13.4297 57.4219 13.4766 57.0586 13.4766 56.6836V56.0156H26.1094C33.4102 56.0156 39.1406 55.9688 39.7031 55.8984C40.3711 55.8281 40.957 55.6641 41.5195 55.4063C42.3281 55.0547 42.6211 54.7734 49.3125 48.1172C57.3398 40.1133 57.0117 40.5234 57.0117 38.5547C57.0117 37.5586 56.9766 37.3711 56.6719 36.7617C56.25 35.9297 55.5117 35.2383 54.6328 34.8281C54.0703 34.5586 53.8008 34.5117 52.9688 34.5117C52.125 34.5117 51.8672 34.5586 51.2461 34.8516C50.8477 35.0273 50.4258 35.2852 50.3203 35.4023C50.2148 35.5313 50.0742 35.625 50.0156 35.625C49.9688 35.625 49.9219 32.0859 49.9219 27.7734C49.9219 23.2734 49.9688 19.9219 50.0273 19.9219C50.0859 19.9219 50.5664 20.2148 51.1055 20.5664C52.125 21.2461 52.2539 21.2813 52.6289 21.0938C52.9336 20.9297 55.6641 16.8281 55.6641 16.5352C55.6641 16.4063 55.6289 16.2188 55.582 16.1133C55.5234 15.9492 39 4.86329 35.6367 2.73047C34.6055 2.08594 34.5469 2.0625 34.1602 2.22657ZM44.0391 10.2656C49.2422 13.7227 53.543 16.5938 53.6016 16.6406C53.6602 16.7109 53.4023 17.2148 52.957 17.8828C52.5469 18.5039 52.1719 19.0664 52.1367 19.125C52.1016 19.1836 48.1992 16.6641 43.4648 13.5117C36.9258 9.16407 34.7812 7.79297 34.5117 7.79297C34.2422 7.79297 32.1445 9.14063 25.5586 13.5117C20.8242 16.6641 16.9219 19.1836 16.8867 19.125C16.8516 19.0664 16.4766 18.5039 16.0664 17.8828C15.5859 17.168 15.3516 16.7109 15.4219 16.6406C15.5977 16.4648 34.3828 3.9961 34.4883 3.9961C34.5352 3.98438 38.8359 6.8086 44.0391 10.2656ZM41.4258 14.1445L48.2812 18.6914V28.0664V37.4414L45.5039 40.2188L42.7266 42.9961L42.4102 42.4453C42 41.7188 41.2734 41.0625 40.4414 40.6758L39.7852 40.3711L34.5469 40.3359L29.3086 40.3008L28.2773 39.1875C26.1094 36.832 24.4102 35.9297 21.8672 35.7656L20.6836 35.6836V27.2109V18.7383L27.5391 14.1797C31.3125 11.6719 34.4414 9.60938 34.4883 9.60938C34.5352 9.60938 37.6641 11.6484 41.4258 14.1445ZM54.3984 36.5156C55.3711 37.1953 55.7461 38.6602 55.207 39.6797C55.0781 39.9492 52.1133 42.9844 48.1406 46.9453C41.7305 53.3438 41.2617 53.7773 40.6055 54.0352L39.9023 54.3164H26.7188H13.5352L13.5 45.8438L13.4766 37.3828H17.8359C22.7344 37.3828 23.1094 37.4297 24.5391 38.168C25.207 38.5195 25.6875 38.918 27.0352 40.2773L28.6875 41.9531H33.8906C37.2773 41.9531 39.2461 42 39.5508 42.082C40.2773 42.2813 41.0742 43.1719 41.2383 43.9688C41.4844 45.1406 40.8984 46.2656 39.7852 46.7695C39.3516 46.9688 38.8594 46.9922 33 46.9922H26.6719L26.4023 47.25C26.0508 47.5781 26.0508 48.0469 26.4023 48.3867L26.6836 48.6445L33.2344 48.6094L39.7852 48.5742L40.5117 48.2344C41.6133 47.7305 42.4102 46.8164 42.7734 45.6445C42.8906 45.2578 43.7227 44.3672 47.2148 40.8516C49.9688 38.0859 51.668 36.457 51.9727 36.3164C52.6875 35.9648 53.7539 36.0586 54.3984 36.5156Z" fill="#F8455B"/>
<path d="M32.4844 18.3867C30 19.0078 27.8555 20.7422 26.7656 23.0273C24.7266 27.3047 26.5195 32.4141 30.7617 34.4531C32.0391 35.0625 33.0586 35.2852 34.4883 35.2852C37.125 35.2734 39.5391 34.1602 41.1328 32.2031C43.7578 28.9805 43.7227 24.3398 41.0508 21.1992C39.8672 19.8047 38.0977 18.7266 36.3633 18.3516C35.2617 18.1055 33.5625 18.1289 32.4844 18.3867ZM36.7852 20.1562C37.8047 20.5195 39.1523 21.4453 39.8086 22.2422C40.7695 23.4375 41.4727 25.2891 41.4844 26.6953C41.4844 27.3633 41.1797 28.8164 40.8984 29.4727C40.3008 30.8789 39.1172 32.1328 37.7227 32.8711C36.6445 33.4336 35.7656 33.6445 34.4297 33.6445C33.4805 33.6445 33.1289 33.5977 32.3203 33.3164C30 32.5078 28.3711 30.7617 27.7734 28.4062C26.8359 24.7383 29.0742 21 32.8125 19.9805C33.7617 19.7227 35.8008 19.8164 36.7852 20.1562Z" fill="#F8455B"/>
<path d="M33.9609 21.5859C33.9258 21.9141 33.8672 21.9844 33.4453 22.1016C32.707 22.3125 32.3086 22.5586 31.8398 23.0742C30.9258 24.082 30.9961 25.7578 31.9922 26.5078C32.1562 26.625 32.6602 26.8711 33.1055 27.0586L33.9258 27.3867L33.9609 28.6289C33.9727 29.332 33.9492 29.8828 33.8906 29.8828C33.6094 29.8828 32.7539 29.5078 32.2734 29.168C31.9805 28.9688 31.7227 28.8281 31.7109 28.8516C31.6992 28.8633 31.4883 29.1328 31.2422 29.4375L30.8086 29.9766L31.1953 30.2695C31.8516 30.7617 32.6836 31.125 33.668 31.3359C33.9375 31.4062 33.9844 31.4648 33.9844 31.8164V32.2266H34.5703H35.1562V31.8164C35.1562 31.4883 35.2031 31.4062 35.3789 31.4062C35.8125 31.4062 36.7852 31.0195 37.207 30.6797C38.2734 29.7891 38.4844 28.1719 37.6523 27.1875C37.3008 26.7656 36.4805 26.3203 35.6953 26.1211L35.1562 25.9922V24.7734C35.1562 24.0117 35.2031 23.5547 35.2734 23.5547C35.5078 23.5547 36.2578 23.918 36.6328 24.1992L37.0078 24.4922L37.4414 23.8945C37.8633 23.332 37.875 23.2969 37.6758 23.0859C37.3828 22.7578 36.1992 22.1836 35.625 22.0898C35.1797 22.0195 35.1562 21.9844 35.1562 21.6094V21.2109H34.582C34.0078 21.2109 33.9961 21.2227 33.9609 21.5859ZM33.9844 24.5508C33.9844 25.0898 33.9375 25.5586 33.8789 25.5938C33.7266 25.6875 33.0234 25.1719 32.9297 24.9023C32.7891 24.5039 33.0234 23.918 33.4219 23.6719C33.6211 23.5547 33.832 23.4727 33.8906 23.5078C33.9375 23.543 33.9844 24.0117 33.9844 24.5508ZM35.625 27.7734C35.6836 27.7734 35.8828 27.9141 36.082 28.0781C36.7266 28.6172 36.5391 29.4141 35.6602 29.8711C35.1914 30.1172 35.1562 30.0469 35.1562 28.8164C35.1562 27.7852 35.1797 27.6445 35.3438 27.7031C35.4492 27.7383 35.5664 27.7734 35.625 27.7734Z" fill="#F8455B"/>
</svg>
