<svg width="16" height="12" viewBox="0 0 16 12" fill="none" xmlns="http://www.w3.org/2000/svg">
<path d="M1.07812 0.418798C0.815622 0.484424 0.618747 0.596924 0.418747 0.796924C0.215622 1.00005 0.0906219 1.22192 0.0343719 1.4938C-0.0156281 1.7313 -0.0156281 10.275 0.0343719 10.5063C0.149997 11.0407 0.587497 11.4782 1.11875 11.5907C1.35312 11.6407 14.6469 11.6407 14.8812 11.5907C15.4125 11.4782 15.8531 11.0344 15.9656 10.5063C16.0156 10.2688 16.0156 1.72505 15.9656 1.4938C15.85 0.956299 15.4156 0.521924 14.8812 0.409424C14.6281 0.356298 1.29062 0.365674 1.07812 0.418798ZM11.3594 4.34692C9.69062 6.01255 8.29062 7.40005 8.24375 7.42505C8.13437 7.4813 7.86562 7.4813 7.75625 7.42505C7.70937 7.40005 6.30937 6.01255 4.64062 4.34692L1.60937 1.31255H8H14.3906L11.3594 4.34692ZM2.95937 8.02192L0.937497 10.0469V6.00005V1.95317L2.95937 3.97817L4.98437 6.00005L2.95937 8.02192ZM15.0625 6.0063V10.0469L13.0406 8.02505L11.0156 6.00005L13.0312 3.98442C14.1406 2.87505 15.05 1.9688 15.0531 1.9688C15.0594 1.9688 15.0625 3.78755 15.0625 6.0063ZM6.37187 7.41567C7.04375 8.0813 7.13125 8.1563 7.35625 8.2688L7.60625 8.39067H7.99687C8.3875 8.39067 8.39375 8.39067 8.6375 8.27192C8.86562 8.16255 8.9375 8.10005 9.63125 7.41567L10.3781 6.67505L12.3844 8.6813L14.3906 10.6875H8H1.60937L3.60937 8.68755C4.70937 7.58755 5.61562 6.68755 5.62187 6.68755C5.63125 6.68755 5.96875 7.01567 6.37187 7.41567Z" fill="white"/>
</svg>
