<svg width="12" height="16" viewBox="0 0 12 16" fill="none" xmlns="http://www.w3.org/2000/svg">
<path d="M5.59375 0.0187483C4.80937 0.106249 4.39062 0.215624 3.76562 0.490623C2.85937 0.893748 2.03437 1.6 1.45937 2.4625C1.26562 2.75312 0.984373 3.3375 0.865623 3.6875C0.640623 4.35 0.524998 5.2375 0.593748 5.79375C0.821873 7.66875 2.4125 10.8687 5.31875 15.3C5.71875 15.9125 5.80625 16 6 16C6.19375 16 6.28125 15.9125 6.68125 15.3C8.94375 11.8531 10.4625 9.04375 11.0781 7.17187C11.375 6.275 11.4594 5.74375 11.4094 5.08437C11.3031 3.68437 10.7406 2.475 9.75625 1.525C8.9625 0.759374 7.95625 0.253123 6.88125 0.0749989C6.60937 0.031249 5.8 -0.00625229 5.59375 0.0187483ZM6.79687 0.887499C8.64687 1.22187 10.1375 2.6625 10.5125 4.47812C10.7312 5.5375 10.5844 6.36875 9.88437 8.01562C9.28125 9.4375 7.9375 11.8594 6.61562 13.9062C6.40937 14.225 6.19062 14.5656 6.12812 14.6625C6.06562 14.7625 6.00937 14.8437 6 14.8437C5.99062 14.8437 5.93437 14.7625 5.87187 14.6656C5.80937 14.5656 5.59062 14.225 5.38437 13.9062C4.0625 11.8594 2.71875 9.4375 2.11562 8.01562C1.525 6.625 1.34062 5.85 1.40625 5.06562C1.50625 3.94375 1.9375 2.99687 2.7125 2.20625C3.49687 1.40937 4.425 0.968749 5.625 0.831248C5.825 0.806249 6.54375 0.843749 6.79687 0.887499Z" fill="white"/>
<path d="M5.67813 2.40928C4.62188 2.52178 3.67813 3.20928 3.25626 4.17178C3.09063 4.55303 3.02813 4.8249 3.00938 5.26553C2.97188 6.14365 3.24376 6.85615 3.85626 7.49365C4.23438 7.88428 4.71563 8.16553 5.28126 8.31865C5.66251 8.42178 6.33751 8.42178 6.71876 8.31865C7.28438 8.16553 7.76563 7.88428 8.14376 7.49365C8.75626 6.85615 9.02813 6.14365 8.99063 5.26553C8.95313 4.37178 8.56563 3.60303 7.88751 3.0624C7.24688 2.55303 6.47188 2.32178 5.67813 2.40928ZM6.46876 3.25615C7.07813 3.36865 7.66563 3.83115 7.95626 4.42178C8.50313 5.52803 8.05938 6.82178 6.95313 7.35928C6.31876 7.66865 5.68126 7.66865 5.04688 7.35928C4.12813 6.91553 3.65001 5.93115 3.85938 4.92178C4.04063 4.0499 4.83751 3.3249 5.72813 3.22178C5.97188 3.19365 6.19688 3.20303 6.46876 3.25615Z" fill="white"/>
</svg>
