<svg width="16" height="16" viewBox="0 0 16 16" fill="none" xmlns="http://www.w3.org/2000/svg">
<path d="M8.98125 0.078125C8.675 0.259375 8.67188 0.69375 8.96875 0.909375C9.0125 0.940625 9.2375 1.01562 9.47188 1.075C11.6438 1.62812 13.4875 3.15312 14.45 5.19375C14.6531 5.61875 14.8344 6.14062 14.9531 6.625C15.0313 6.9375 15.0563 7 15.1594 7.10938C15.275 7.23125 15.2813 7.23438 15.4906 7.23438C15.7406 7.23438 15.8406 7.17812 15.9375 6.98125C16.0219 6.81562 16.0156 6.74062 15.9063 6.3C15.1188 3.1875 12.6375 0.759375 9.52188 0.0499997C9.23125 -0.0187502 9.13125 -0.0125003 8.98125 0.078125Z" fill="white"/>
<path d="M3.14063 0.0906878C2.49063 0.256312 1.875 0.653188 1.23438 1.31881C0.440628 2.14069 0.0187531 2.96881 0.0187531 3.70319C0.0187531 3.98756 0.0312531 4.05631 0.165628 4.49381C0.446878 5.40319 0.734378 6.11256 1.20625 7.06256C2.07188 8.79694 3.0375 10.1344 4.45 11.5501C5.8625 12.9626 7.20313 13.9313 8.9375 14.7938C10.1688 15.4032 11.6563 15.9532 12.1875 15.9938C12.8938 16.0438 13.825 15.5907 14.6656 14.7813C15.6594 13.8282 16.1219 12.8063 15.9188 12.0219C15.7 11.1719 14.7094 10.3157 13.4719 9.90631C12.9438 9.73131 12.6688 9.68131 12.2188 9.68131C11.9188 9.67819 11.7719 9.69381 11.5844 9.74381C11.1719 9.85631 11 9.96881 10.5156 10.4438L10.075 10.8751L9.87188 10.7563C8.125 9.73444 6.47813 8.11569 5.37188 6.33756L5.11875 5.93131L5.52188 5.51881C5.94688 5.09069 6.08438 4.91569 6.19063 4.66569C6.41875 4.13131 6.39688 3.31256 6.13438 2.57819C5.86563 1.83131 5.30938 0.996938 4.775 0.537562C4.24375 0.0844374 3.725 -0.0561867 3.14063 0.0906878ZM3.90625 1.12819C4.12813 1.25631 4.48125 1.61881 4.69688 1.94381C5.29063 2.83756 5.5125 3.79694 5.24375 4.32506C5.20938 4.39381 4.92188 4.71256 4.60938 5.03131C3.87188 5.77819 3.88125 5.74381 4.26563 6.42506C5.19375 8.06256 6.50938 9.55944 8.03125 10.7157C8.65313 11.1907 9.50938 11.7376 9.92188 11.9251C10.0656 11.9938 10.125 12.0032 10.2438 11.9844C10.3844 11.9626 10.4219 11.9344 10.9719 11.3876C11.3156 11.0469 11.5938 10.7969 11.6625 10.7688C12.375 10.4688 13.8281 10.9407 14.5938 11.7188C14.9313 12.0626 15.0219 12.3282 14.9219 12.6751C14.6938 13.4719 13.7063 14.4938 12.7969 14.8751C12.4406 15.0219 12.2875 15.0282 11.8875 14.9063C9.83125 14.2844 7.9 13.2313 6.15313 11.7782C5.65313 11.3626 4.6375 10.3438 4.21875 9.84381C2.79063 8.12506 1.74688 6.22819 1.12813 4.22194C0.987503 3.76256 0.975003 3.65319 1.05 3.40319C1.35938 2.36256 2.77188 1.03756 3.57813 1.03131C3.69688 1.03131 3.775 1.05631 3.90625 1.12819Z" fill="white"/>
<path d="M8.14063 2.84377C7.99063 2.87815 7.88438 2.96252 7.8125 3.10627C7.74063 3.2594 7.73438 3.36877 7.79375 3.5094C7.87813 3.70627 7.98438 3.76877 8.41563 3.8719C9.14063 4.0469 9.72813 4.31877 10.3 4.75315C10.6406 5.01252 11.1031 5.4844 11.3563 5.83752C11.7156 6.34377 12.0469 7.11565 12.1594 7.71252C12.2188 8.0344 12.3813 8.21252 12.6313 8.24065C12.8781 8.26877 13.1063 8.0969 13.1688 7.8344C13.1813 7.7844 13.1563 7.60315 13.1063 7.3844C12.8469 6.22815 12.3031 5.26252 11.4344 4.4219C10.6563 3.6719 9.75313 3.16877 8.75 2.92815C8.33125 2.82815 8.25625 2.81565 8.14063 2.84377Z" fill="white"/>
</svg>
