<svg width="107" height="106" viewBox="0 0 107 106" fill="none" xmlns="http://www.w3.org/2000/svg">
<g filter="url(#filter0_dd_463_22)">
<circle cx="53.3333" cy="52" r="50" fill="white"/>
</g>
<path d="M53.1602 24.2266C53.0312 24.2852 48.3086 27.4023 42.6719 31.1641C32.7109 37.7969 32.418 38.0078 32.3828 38.3945C32.3477 38.7227 32.5352 39.0742 33.6719 40.7852C34.3984 41.8867 35.0664 42.8477 35.1484 42.9414C35.5352 43.3281 35.8516 43.2578 36.8711 42.5781C37.4219 42.2148 37.8906 41.9219 37.9258 41.9219C37.9609 41.9219 37.9844 45.4844 37.9844 49.832V57.7422L35.2656 57.7188L32.5352 57.6836L32.5 56.9805C32.4414 55.7852 32.8164 55.8672 27.2031 55.8672C22.6211 55.8672 22.3047 55.8789 22.1289 56.0781C21.8477 56.3828 21.8828 56.957 22.1758 57.2266C22.4102 57.4375 22.6797 57.4492 26.6289 57.4844L30.8359 57.5195V67.8789V78.25H26.6406C21.9531 78.25 21.9297 78.25 21.9297 79.0117C21.9297 79.293 22.0117 79.4688 22.2344 79.6445C22.5391 79.8789 22.668 79.8906 27.168 79.8906C31.7617 79.8906 32.1367 79.8555 32.3828 79.4922C32.4297 79.4219 32.4766 79.0586 32.4766 78.6836V78.0156H45.1094C52.4102 78.0156 58.1406 77.9688 58.7031 77.8984C59.3711 77.8281 59.957 77.6641 60.5195 77.4063C61.3281 77.0547 61.6211 76.7734 68.3125 70.1172C76.3398 62.1133 76.0117 62.5234 76.0117 60.5547C76.0117 59.5586 75.9766 59.3711 75.6719 58.7617C75.25 57.9297 74.5117 57.2383 73.6328 56.8281C73.0703 56.5586 72.8008 56.5117 71.9688 56.5117C71.125 56.5117 70.8672 56.5586 70.2461 56.8516C69.8477 57.0273 69.4258 57.2852 69.3203 57.4023C69.2148 57.5313 69.0742 57.625 69.0156 57.625C68.9688 57.625 68.9219 54.0859 68.9219 49.7734C68.9219 45.2734 68.9688 41.9219 69.0273 41.9219C69.0859 41.9219 69.5664 42.2148 70.1055 42.5664C71.125 43.2461 71.2539 43.2813 71.6289 43.0938C71.9336 42.9297 74.6641 38.8281 74.6641 38.5352C74.6641 38.4063 74.6289 38.2188 74.582 38.1133C74.5234 37.9492 58 26.8633 54.6367 24.7305C53.6055 24.0859 53.5469 24.0625 53.1602 24.2266ZM63.0391 32.2656C68.2422 35.7227 72.543 38.5938 72.6016 38.6406C72.6602 38.7109 72.4023 39.2148 71.957 39.8828C71.5469 40.5039 71.1719 41.0664 71.1367 41.125C71.1016 41.1836 67.1992 38.6641 62.4648 35.5117C55.9258 31.1641 53.7812 29.793 53.5117 29.793C53.2422 29.793 51.1445 31.1406 44.5586 35.5117C39.8242 38.6641 35.9219 41.1836 35.8867 41.125C35.8516 41.0664 35.4766 40.5039 35.0664 39.8828C34.5859 39.168 34.3516 38.7109 34.4219 38.6406C34.5977 38.4648 53.3828 25.9961 53.4883 25.9961C53.5352 25.9844 57.8359 28.8086 63.0391 32.2656ZM60.4258 36.1445L67.2812 40.6914V50.0664V59.4414L64.5039 62.2188L61.7266 64.9961L61.4102 64.4453C61 63.7188 60.2734 63.0625 59.4414 62.6758L58.7852 62.3711L53.5469 62.3359L48.3086 62.3008L47.2773 61.1875C45.1094 58.832 43.4102 57.9297 40.8672 57.7656L39.6836 57.6836V49.2109V40.7383L46.5391 36.1797C50.3125 33.6719 53.4414 31.6094 53.4883 31.6094C53.5352 31.6094 56.6641 33.6484 60.4258 36.1445ZM73.3984 58.5156C74.3711 59.1953 74.7461 60.6602 74.207 61.6797C74.0781 61.9492 71.1133 64.9844 67.1406 68.9453C60.7305 75.3438 60.2617 75.7773 59.6055 76.0352L58.9023 76.3164H45.7188H32.5352L32.5 67.8438L32.4766 59.3828H36.8359C41.7344 59.3828 42.1094 59.4297 43.5391 60.168C44.207 60.5195 44.6875 60.918 46.0352 62.2773L47.6875 63.9531H52.8906C56.2773 63.9531 58.2461 64 58.5508 64.082C59.2773 64.2813 60.0742 65.1719 60.2383 65.9688C60.4844 67.1406 59.8984 68.2656 58.7852 68.7695C58.3516 68.9688 57.8594 68.9922 52 68.9922H45.6719L45.4023 69.25C45.0508 69.5781 45.0508 70.0469 45.4023 70.3867L45.6836 70.6445L52.2344 70.6094L58.7852 70.5742L59.5117 70.2344C60.6133 69.7305 61.4102 68.8164 61.7734 67.6445C61.8906 67.2578 62.7227 66.3672 66.2148 62.8516C68.9688 60.0859 70.668 58.457 70.9727 58.3164C71.6875 57.9648 72.7539 58.0586 73.3984 58.5156Z" fill="#F8455B"/>
<path d="M51.4844 40.3867C49 41.0078 46.8555 42.7422 45.7656 45.0273C43.7266 49.3047 45.5195 54.4141 49.7617 56.4531C51.0391 57.0625 52.0586 57.2852 53.4883 57.2852C56.125 57.2734 58.5391 56.1602 60.1328 54.2031C62.7578 50.9805 62.7227 46.3398 60.0508 43.1992C58.8672 41.8047 57.0977 40.7266 55.3633 40.3516C54.2617 40.1055 52.5625 40.1289 51.4844 40.3867ZM55.7852 42.1562C56.8047 42.5195 58.1523 43.4453 58.8086 44.2422C59.7695 45.4375 60.4727 47.2891 60.4844 48.6953C60.4844 49.3633 60.1797 50.8164 59.8984 51.4727C59.3008 52.8789 58.1172 54.1328 56.7227 54.8711C55.6445 55.4336 54.7656 55.6445 53.4297 55.6445C52.4805 55.6445 52.1289 55.5977 51.3203 55.3164C49 54.5078 47.3711 52.7617 46.7734 50.4062C45.8359 46.7383 48.0742 43 51.8125 41.9805C52.7617 41.7227 54.8008 41.8164 55.7852 42.1562Z" fill="#F8455B"/>
<path d="M52.9609 43.5859C52.9258 43.9141 52.8672 43.9844 52.4453 44.1016C51.707 44.3125 51.3086 44.5586 50.8398 45.0742C49.9258 46.082 49.9961 47.7578 50.9922 48.5078C51.1562 48.625 51.6602 48.8711 52.1055 49.0586L52.9258 49.3867L52.9609 50.6289C52.9727 51.332 52.9492 51.8828 52.8906 51.8828C52.6094 51.8828 51.7539 51.5078 51.2734 51.168C50.9805 50.9688 50.7227 50.8281 50.7109 50.8516C50.6992 50.8633 50.4883 51.1328 50.2422 51.4375L49.8086 51.9766L50.1953 52.2695C50.8516 52.7617 51.6836 53.125 52.668 53.3359C52.9375 53.4062 52.9844 53.4648 52.9844 53.8164V54.2266H53.5703H54.1562V53.8164C54.1562 53.4883 54.2031 53.4062 54.3789 53.4062C54.8125 53.4062 55.7852 53.0195 56.207 52.6797C57.2734 51.7891 57.4844 50.1719 56.6523 49.1875C56.3008 48.7656 55.4805 48.3203 54.6953 48.1211L54.1562 47.9922V46.7734C54.1562 46.0117 54.2031 45.5547 54.2734 45.5547C54.5078 45.5547 55.2578 45.918 55.6328 46.1992L56.0078 46.4922L56.4414 45.8945C56.8633 45.332 56.875 45.2969 56.6758 45.0859C56.3828 44.7578 55.1992 44.1836 54.625 44.0898C54.1797 44.0195 54.1562 43.9844 54.1562 43.6094V43.2109H53.582C53.0078 43.2109 52.9961 43.2227 52.9609 43.5859ZM52.9844 46.5508C52.9844 47.0898 52.9375 47.5586 52.8789 47.5938C52.7266 47.6875 52.0234 47.1719 51.9297 46.9023C51.7891 46.5039 52.0234 45.918 52.4219 45.6719C52.6211 45.5547 52.832 45.4727 52.8906 45.5078C52.9375 45.543 52.9844 46.0117 52.9844 46.5508ZM54.625 49.7734C54.6836 49.7734 54.8828 49.9141 55.082 50.0781C55.7266 50.6172 55.5391 51.4141 54.6602 51.8711C54.1914 52.1172 54.1562 52.0469 54.1562 50.8164C54.1562 49.7852 54.1797 49.6445 54.3438 49.7031C54.4492 49.7383 54.5664 49.7734 54.625 49.7734Z" fill="#F8455B"/>
<defs>
<filter id="filter0_dd_463_22" x="0.333313" y="0" width="106" height="106" filterUnits="userSpaceOnUse" color-interpolation-filters="sRGB">
<feFlood flood-opacity="0" result="BackgroundImageFix"/>
<feColorMatrix in="SourceAlpha" type="matrix" values="0 0 0 0 0 0 0 0 0 0 0 0 0 0 0 0 0 0 127 0" result="hardAlpha"/>
<feOffset dy="1"/>
<feGaussianBlur stdDeviation="1"/>
<feColorMatrix type="matrix" values="0 0 0 0 0.0627451 0 0 0 0 0.0941176 0 0 0 0 0.156863 0 0 0 0.06 0"/>
<feBlend mode="normal" in2="BackgroundImageFix" result="effect1_dropShadow_463_22"/>
<feColorMatrix in="SourceAlpha" type="matrix" values="0 0 0 0 0 0 0 0 0 0 0 0 0 0 0 0 0 0 127 0" result="hardAlpha"/>
<feOffset dy="1"/>
<feGaussianBlur stdDeviation="1.5"/>
<feColorMatrix type="matrix" values="0 0 0 0 0.0627451 0 0 0 0 0.0941176 0 0 0 0 0.156863 0 0 0 0.1 0"/>
<feBlend mode="normal" in2="effect1_dropShadow_463_22" result="effect2_dropShadow_463_22"/>
<feBlend mode="normal" in="SourceGraphic" in2="effect2_dropShadow_463_22" result="shape"/>
</filter>
</defs>
</svg>
